<?xml version="1.0" encoding="UTF-8" standalone="no"?>
<svg
   xmlns:dc="http://purl.org/dc/elements/1.1/"
   xmlns:cc="http://creativecommons.org/ns#"
   xmlns:rdf="http://www.w3.org/1999/02/22-rdf-syntax-ns#"
   xmlns:svg="http://www.w3.org/2000/svg"
   xmlns="http://www.w3.org/2000/svg"
   xmlns:sodipodi="http://sodipodi.sourceforge.net/DTD/sodipodi-0.dtd"
   xmlns:inkscape="http://www.inkscape.org/namespaces/inkscape"
   width="500mm"
   height="500mm"
   viewBox="0 0 1889.7639 1889.7639"
   version="1.1"
   id="svg56"
   sodipodi:docname="tjj_pdf1.svg"
   inkscape:version="1.0.2-2 (e86c870879, 2021-01-15)">
  <metadata
     id="metadata62">
    <rdf:RDF>
      <cc:Work
         rdf:about="">
        <dc:format>image/svg+xml</dc:format>
        <dc:type
           rdf:resource="http://purl.org/dc/dcmitype/StillImage" />
        <dc:title></dc:title>
      </cc:Work>
    </rdf:RDF>
  </metadata>
  <defs
     id="defs60" />
  <sodipodi:namedview
     pagecolor="#ffffff"
     bordercolor="#666666"
     borderopacity="1"
     objecttolerance="10"
     gridtolerance="10"
     guidetolerance="10"
     inkscape:pageopacity="0"
     inkscape:pageshadow="2"
     inkscape:window-width="1920"
     inkscape:window-height="1017"
     id="namedview58"
     showgrid="false"
     inkscape:zoom="0.35355339"
     inkscape:cx="-426.1981"
     inkscape:cy="184.53792"
     inkscape:window-x="1912"
     inkscape:window-y="-8"
     inkscape:window-maximized="1"
     inkscape:current-layer="svg56"
     inkscape:document-rotation="0"
     units="mm" />
  <desc
     id="desc2">tjjcar_cad.blend, (Blender 2.92.0)</desc>
  <path
     id="polygon4"
     d="m 190.352,1.2519531 v 11.7174889 25.387726 37.104216 21.48123 h -11.72429 v 50.774456 44.9162 H 190.352 v 27.34048 37.10421 37.10422 h 68.39131 v 11.71749 h 82.06942 v -11.71749 h 66.4371 93.79391 93.7939 66.4371 v 11.71749 h 82.06942 v -11.71749 h 68.39101 v -37.10422 -37.10421 -27.34048 h 11.72449 V 147.71747 96.942714 H 811.73659 V 75.461184 38.356568 14.92209 1.2519531 h -70.34543 -80.1156 V 12.969442 H 596.79238 V 1.2519531 H 501.04456 405.29674 V 12.969442 H 340.81355 V 1.2519531 H 258.74413 Z M 835.18507,5.161449 v 11.717489 17.575734 33.198719 21.48123 11.717489 h 11.72449 v 15.62299 29.29322 23.43398 21.48123 3.90949 h -11.72449 v 23.43398 25.38773 35.15146 19.52849 h 11.72449 37.12638 44.94304 27.3568 v 11.71748 H 1077.486 v -11.72348 h 119.1964 119.1965 V 278.55999 243.40823 218.0209 202.39792 h 68.391 68.391 v 11.71748 h 70.3449 v -11.71748 h 58.6215 11.7245 v -23.43448 -23.43448 -27.34028 h -11.7245 V 112.5657 98.895462 79.36698 h 11.7245 V 34.450772 16.875039 5.1575495 h -11.7235 -58.6213 -68.3913 -70.3455 -68.3913 -119.1965 -121.1504 -119.19642 -27.3566 V 16.875039 H 885.98985 V 5.1575495 H 846.90856 Z M 407.25045,98.899362 h 93.79391 93.7939 v 48.821708 42.96346 h -93.7939 -93.79391 V 147.72107 Z M 956.33558,169.2023 h 119.19642 119.1964 v 21.48123 27.34047 25.38773 33.19872 H 1075.532 956.33558 V 243.40823 218.0209 196.53927 190.68063 Z M 41.844982,317.61746 v 80.06767 80.06768 80.06767 82.02043 80.06767 80.06768 80.06767 82.02043 h 74.253458 70.34543 74.25356 72.29984 72.29985 70.34493 74.25375 72.29985 v -82.01943 -80.06767 -80.06768 -80.06767 -82.02043 -80.06767 -80.06768 -80.06767 h -72.30033 -74.25355 -70.34543 -72.29945 -72.29944 -74.25354 -70.34543 z m 638.970928,0 v 9.76874 h -37.12638 v 78.11493 72.25668 h -11.72449 v 66.39744 h 11.72449 v 95.69066 93.73791 h -11.72449 v 66.39744 h 11.72449 v 70.30393 78.11493 h 37.12638 v 13.67024 h 23.44898 21.49406 v -13.67024 h 5.86274 23.44798 23.44797 21.49407 23.44797 V 870.28059 799.97706 733.57942 639.84151 544.15075 477.75301 405.49673 327.3818 h -23.44727 -21.49447 -23.44847 -23.44848 -5.86214 v -9.76874 h -21.49406 z m 154.36916,0 v 11.71749 70.30293 h 11.72449 v 78.11493 h -11.72449 v 80.06767 82.02043 80.06767 80.06768 h 11.72449 v 80.06767 h -11.72449 v 68.35019 13.67024 h 11.72449 50.80478 60.57536 v -11.71749 h 62.5293 54.7126 v 11.71749 h 68.391 62.5293 60.5753 48.8509 13.6784 v -13.66924 -68.35019 -80.06767 h -11.7236 v -80.06768 h 11.7245 v -80.06807 -82.02063 h -11.7245 v -78.11492 h 11.7245 v -82.02043 -68.35018 -11.71749 h -13.6784 -48.8509 -60.5753 -62.5293 -68.391 v 9.76874 h -54.7126 -62.5293 v -9.76874 h -60.57536 -50.80478 z m 510.00443,0 v 80.06767 80.06768 h -11.7243 v 82.02042 h 11.7245 v 80.06828 78.11492 h -11.7245 v 82.02043 h 11.7245 v 80.06767 82.02043 h 9.7746 11.7245 9.7745 9.7746 11.7245 9.7746 9.7746 11.7245 v -82.02043 -80.06767 h 11.7244 v -82.02043 h -11.7474 v -78.11492 -80.06778 h 11.7245 v -82.02042 h -11.7245 v -80.06768 -80.06767 h -11.7244 -9.7746 -9.7746 -11.7245 -9.7746 -9.7745 -11.7245 z m 103.5641,0 v 11.71749 68.35018 82.02043 h 9.7746 v 78.11492 h -9.7746 v 82.02043 80.06767 h 9.7746 v 80.06768 h -9.7746 v 80.06767 68.35019 13.67024 h 11.7245 21.494 35.1725 35.1725 35.1724 v -11.71749 h 33.2186 35.1724 v 11.71749 h 33.2186 23.448 11.7245 v -13.67024 -68.35019 -80.06767 h -9.7746 v -80.06668 h 9.7762 v -80.06807 -82.02063 h -9.7746 v -78.11492 h 9.7746 v -82.02043 -68.35018 -11.71749 h -11.7245 -23.448 -33.2186 v 9.76874 h -35.1724 -33.2186 v -9.76874 h -35.1734 -35.1727 -35.1728 -21.4944 z M 956.33558,969.87705 v 11.71749 h -27.3566 -42.98883 -37.12678 -11.72429 v 19.52846 33.1987 27.3405 23.434 h 9.77458 v 3.9095 21.4812 23.434 27.3405 15.623 h -9.77458 v 13.6702 21.4812 31.246 19.5285 11.7175 h 11.72449 37.12638 v -11.7175 h 42.98913 v 11.7175 h 27.3568 121.15042 119.1964 119.1965 70.3449 68.391 68.391 58.6215 11.7245 v -11.7175 -19.5285 -44.9162 h -9.7746 v -19.5285 -11.7175 -15.623 h 9.7746 v -29.2932 -23.434 -23.4339 h -11.7245 -56.6675 v -11.7175 h -70.345 v 11.7175 h -68.3908 -68.3914 v -13.6734 -27.3403 -33.1988 -19.52866 H 1196.6824 1077.486 v -11.71749 z m -834.37498,3.9095 -11.72428,1.94974 -13.678307,3.9095 -9.770573,3.9095 -11.724289,3.90949 -11.724288,5.85925 -9.770574,7.80897 -9.770573,7.809 -7.816659,7.809 -7.816659,9.7687 -7.816659,9.7688 -5.861744,11.7175 -3.90783,11.7175 -3.9078289,9.7687 -3.9078293,11.7175 -1.9539146,13.6702 v 11.7175 11.7175 l 1.9539146,13.6702 3.9078293,11.7175 3.9078289,11.7175 3.90783,11.7175 5.861744,9.7688 7.816659,9.7687 7.816659,9.7687 7.816659,7.809 9.770573,9.7688 9.770574,5.8592 11.724288,5.8593 11.724289,5.8592 9.770573,3.9095 13.678307,1.9497 11.72428,1.9498 h 11.72429 11.72429 l 13.6783,-1.9498 11.72419,-1.9497 11.72429,-3.9095 11.72419,-5.8592 9.77457,-5.8593 9.77458,-5.8592 9.77458,-9.7688 7.81365,-7.809 9.77458,-9.7687 5.86274,-9.7687 5.86275,-9.7688 5.86274,-11.7175 3.91183,-11.7175 1.95092,-11.7175 1.95091,-13.6702 v -11.7175 -11.7175 l -1.95091,-13.6702 -1.95092,-11.7175 -3.91183,-9.7687 -5.86274,-11.7175 -5.86275,-11.7175 -5.86274,-9.7688 -9.77458,-9.7687 -7.81365,-7.809 -9.77458,-7.809 -9.77458,-7.80897 -9.77457,-5.85925 -11.72419,-3.90949 -11.72429,-3.9095 -11.72419,-3.9095 -13.6783,-1.94974 h -11.72429 z m 273.56556,0 -11.72449,1.94974 -11.72448,3.9095 -9.77458,3.9095 -13.6784,3.90949 -9.77458,5.85925 -9.77457,7.80897 -9.77458,7.809 -9.77457,7.809 -7.81366,9.7687 -5.86275,9.7688 -5.86274,11.7175 -3.91183,11.7175 -3.91183,9.7687 -3.91183,11.7175 -1.95092,13.6702 v 11.7175 11.7175 l 1.95092,13.6702 3.91183,11.7175 3.91183,11.7175 3.91183,11.7175 5.86274,9.7688 5.86275,9.7687 7.81366,9.7687 9.77457,7.809 9.77458,9.7688 9.77457,5.8592 9.77458,5.8593 13.6784,5.8592 9.77458,3.9095 11.72448,1.9497 11.72449,1.9498 h 13.67841 11.72448 l 11.72449,-1.9498 13.67841,-1.9497 11.72448,-3.9095 9.77458,-5.8592 11.72449,-5.8593 9.77457,-5.8592 9.77458,-9.7688 7.81366,-7.809 7.81365,-9.7687 7.81366,-9.7687 5.86275,-9.7688 5.86274,-11.7175 3.91183,-11.7175 1.95091,-11.7175 1.95092,-13.6702 v -11.7175 -11.7175 l -1.95092,-13.6702 -1.95091,-11.7175 -3.91183,-9.7687 -5.86274,-11.7175 -5.86275,-11.7175 -7.81366,-9.7688 -7.81365,-9.7687 -7.81366,-7.809 -9.77458,-7.809 -9.77457,-7.80897 -11.72449,-5.85925 -9.77458,-3.90949 -11.72448,-3.9095 -13.67841,-3.9095 -11.72449,-1.94974 h -11.72448 z m 277.47369,0 -11.72449,1.94974 -11.72449,3.9095 -11.72448,3.9095 -11.72449,3.90949 -9.77458,5.85925 -11.72449,7.80897 -7.81365,7.809 -9.77458,7.809 -7.81366,9.7687 -5.86274,9.7688 -7.81366,11.7175 -3.91183,11.7175 -3.91183,9.7687 -1.95092,11.7175 -1.95091,13.6702 -1.95091,11.7175 1.95091,11.7175 1.95091,13.6702 1.95092,11.7175 3.91183,11.7175 3.91183,11.7175 7.81366,9.7688 5.86274,9.7687 7.81366,9.7687 9.77458,7.809 7.81365,9.7688 11.72449,5.8592 9.77458,5.8593 11.72449,5.8592 11.72448,3.9095 11.72449,1.9497 11.72449,1.9498 h 11.72449 13.6784 l 11.72449,-1.9498 11.72449,-1.9497 11.72449,-3.9095 11.72448,-5.8592 9.77458,-5.8593 11.72449,-5.8592 7.81366,-9.7688 9.77457,-7.809 7.81366,-9.7687 7.81366,-9.7687 3.91183,-9.7688 5.86274,-11.7175 3.91183,-11.7175 1.95092,-11.7175 3.91183,-13.6702 v -11.7175 -11.7175 l -3.91183,-13.6702 -1.95092,-11.7175 -3.91183,-9.7687 -5.86274,-11.7175 -3.91183,-11.7175 -7.81366,-9.7688 -7.81366,-9.7687 -9.77457,-7.809 -7.81366,-7.809 -11.72449,-7.80897 -9.77458,-5.85925 -11.72448,-3.90949 -11.72449,-3.9095 -11.72449,-3.9095 -11.72449,-1.94974 h -13.6784 z m 674.14365,0 v 78.11495 h 76.2077 v -78.11495 z m 89.8861,0 v 78.11495 h 78.1616 v -78.11495 z m 93.7939,0 v 78.11495 h 76.2077 v -78.11495 z m 91.84,0 v 78.11495 h 76.2077 v -78.11895 z m -664.3739,29.28925 h 119.1964 119.1964 v 31.2459 27.3405 27.3405 21.4812 H 1077.486 958.2896 v -21.4815 -5.8587 -21.4816 -27.3403 z m -832.42092,97.6435 H 141.501 v 11.7175 h -15.63232 z m 273.56551,0 h 17.58623 v 11.7175 h -17.58623 z m 277.47369,0 h 17.58623 v 11.7175 h -17.58623 z m -554.94728,154.277 -11.72428,1.9497 -13.678307,1.9498 -11.724288,3.9095 -9.770574,5.8592 -11.724288,5.8593 -9.770574,5.8592 -9.770573,7.809 -7.816659,9.7687 -7.816659,9.7688 -7.816659,9.7687 -5.861744,9.7688 -5.8617442,11.7175 -3.9078293,11.7174 -1.9539147,11.7175 -1.9539146,13.6703 v 11.7175 11.7174 l 1.9539146,11.7175 1.9539147,11.7175 3.9078293,11.7175 5.8617442,11.7175 5.861744,9.7687 7.816659,11.7175 7.816659,7.809 7.816659,9.7688 9.770573,7.809 9.770574,7.809 11.724288,5.8592 9.770574,3.9095 11.724288,3.9095 13.678307,3.9095 h 11.72428 l 11.72429,1.9497 11.72429,-1.9497 h 13.6783 l 9.77058,-3.9095 11.72429,-3.9095 11.72368,-3.9295 11.72449,-5.8592 9.77458,-7.809 9.77457,-7.809 7.81366,-9.7688 7.81366,-7.809 7.81366,-11.7175 5.86274,-9.7687 3.91183,-11.7175 3.91183,-11.7175 3.91183,-11.7175 1.95092,-11.7175 v -11.7174 -11.7175 l -1.95092,-13.6703 -3.91183,-11.7175 -3.91183,-11.7174 -3.91183,-11.7175 -5.86274,-9.7688 -7.81366,-9.7687 -7.81366,-9.7688 -7.81366,-9.7687 -9.77457,-7.809 -9.77458,-5.8592 -11.72449,-5.8393 -11.72428,-5.8592 -11.72429,-3.9095 -9.77058,-1.9498 -13.6783,-1.9497 h -11.72429 z m 273.56556,0 -11.72449,1.9497 -11.72448,3.9095 -11.72449,3.9095 -11.72449,3.9095 -11.72449,5.8593 -9.77457,5.8592 -7.81366,7.809 -9.77458,9.7687 -7.81366,9.7688 -7.81365,9.7687 -5.86275,9.7688 -3.91183,13.6702 -3.91183,9.7687 -1.95091,11.7175 -3.91183,13.6703 v 11.7175 11.7174 l 3.91183,11.7175 1.95091,13.6703 3.91183,11.7175 3.91183,9.7687 5.86275,11.7175 7.81365,9.7687 7.81366,9.7688 9.77458,7.809 7.81366,7.809 9.77457,7.8089 11.72449,5.8593 11.72449,5.8592 11.72449,3.9095 11.72448,1.9498 11.72449,1.9497 h 13.67841 11.72448 l 11.72449,-1.9497 11.72449,-1.9498 11.72449,-3.9095 11.72449,-5.8592 9.77457,-5.8593 11.72449,-7.8089 7.81366,-7.809 9.77457,-7.809 7.81366,-9.7688 5.86275,-9.7687 7.81365,-11.7175 3.91183,-9.7687 3.91184,-11.7175 1.95091,-13.6703 1.95091,-11.7175 1.95092,-11.7174 -1.95092,-11.7175 -1.95091,-13.6703 -1.95091,-11.7175 -3.91184,-9.7687 -3.91183,-13.6702 -7.81365,-9.7688 -5.86275,-9.7687 -7.81366,-9.7688 -9.77457,-9.7687 -7.81366,-7.809 -11.72449,-5.8592 -9.77457,-5.8593 -11.72449,-3.9095 -11.72449,-3.9095 -11.72449,-3.9095 -11.72449,-1.9497 h -11.72448 z m 279.4277,0 -13.6784,1.9497 -11.72449,3.9095 -11.72448,3.9095 -9.77458,3.9095 -11.72449,5.8593 -9.77457,5.8592 -9.77458,7.809 -7.81366,9.7687 -7.81366,9.7688 -7.81365,9.7687 -5.86275,9.7688 -5.86274,13.6702 -3.91183,9.7687 -1.95092,11.7175 -1.95091,13.6703 v 11.7175 11.7174 l 1.95091,11.7175 1.95092,13.6703 3.91183,11.7175 5.86274,9.7687 5.86275,11.7175 7.81365,9.7687 7.81366,9.7688 7.81366,7.809 9.77458,7.809 9.77457,7.8089 11.72449,5.8593 9.77458,5.8592 11.72448,3.9095 11.72449,1.9498 13.6784,1.9497 h 11.72449 11.72449 l 11.72449,-1.9497 11.72449,-1.9498 13.6784,-3.9095 9.77458,-5.8592 11.72448,-5.8593 9.77458,-7.8089 7.81366,-7.809 9.77457,-7.809 7.81366,-9.7688 7.81366,-9.7687 5.86274,-11.7175 3.91183,-9.7687 3.91184,-11.7175 3.91183,-13.6703 1.95091,-11.7175 v -11.7464 -11.7175 l -1.96982,-13.6703 -3.91183,-11.7175 -3.91183,-9.7687 -3.91184,-13.6702 -5.86274,-9.7688 -7.81366,-9.7687 -7.81366,-9.7688 -9.77457,-9.7687 -7.81366,-7.809 -9.77457,-5.8592 -11.72449,-5.8593 -9.77458,-3.9095 -13.6784,-3.9095 -11.72449,-3.9095 -11.72449,-1.9497 h -11.70548 z m -549.08518,126.937 H 141.501 v 9.7688 h -15.63232 z"
     style="fill:none;fill-opacity:0.971888;stroke:#000000;stroke-width:0.07559055;stroke-miterlimit:4;stroke-dasharray:none;stroke-opacity:1"
     sodipodi:nodetypes="ccccccccccccccccccccccccccccccccccccccccccccccccccccccccccccccccccccccccccccccccccccccccccccccccccccccccccccccccccccccccccccccccccccccccccccccccccccccccccccccccccccccccccccccccccccccccccccccccccccccccccccccccccccccccccccccccccccccccccccccccccccccccccccccccccccccccccccccccccccccccccccccccccccccccccccccccccccccccccccccccccccccccccccccccccccccccccccccccccccccccccccccccccccccccccccccccccccccccccccccccccccccccccccccccccccccccccccccccccccccccccccccccccccccccccccccccccccccccccccccccccccccccccccccccccccccccccccccccccccccccccccccccccccccccccccccccccccccccccccccccccccccccccccccccccccccccccccccccccccccccccccccccccccccccccccccccccccccccccccccccccccccccccccccccccccccccccccccccccccccccccccccccccccccccccccccccccccccccccccccccccccccccccccccccccccccccccccccccccccccccccccccccccccccccccccccccccccccccccccccccccccccccccccccccccccccccccccccccccccccccccccccccccccccccccccccccccccccccccccccccccc" />
  <circle
     style="fill:none;fill-opacity:0.971888;stroke:#000000;stroke-width:0.07559055;stroke-miterlimit:4;stroke-dasharray:none;stroke-opacity:1"
     id="path841"
     cx="731.70441"
     cy="828.10461"
     r="18.497925" />
</svg>
